HIERARCHY
ROOT RootJoint
{
    OFFSET   0.000000   0.000000   0.000000
    CHANNELS 6 Xposition Yposition Zposition Xrotation Yrotation Zrotation
    JOINT pelvis_lowerback
    {
        OFFSET   0.000000   0.093605   0.000000
        CHANNELS 3 Xrotation Yrotation Zrotation
        JOINT lowerback_torso
        {
            OFFSET   0.000000   0.100000   0.000000
            CHANNELS 3 Xrotation Yrotation Zrotation
            JOINT torso_head
            {
                OFFSET   0.000000   0.282350   0.000000
                CHANNELS 3 Xrotation Yrotation Zrotation
                End Site
                {
                    OFFSET   0.000000   0.192650   0.000000
                }
            }
            JOINT rTorso_Clavicle
            {
                OFFSET  -0.001000   0.157500   0.000000
                CHANNELS 3 Xrotation Yrotation Zrotation
                JOINT rShoulder
                {
                    OFFSET  -0.117647   0.000000   0.000000
                    CHANNELS 3 Xrotation Yrotation Zrotation
                    JOINT rElbow
                    {
                        OFFSET  -0.245000   0.000000   0.000000
                        CHANNELS 3 Xrotation Yrotation Zrotation
                        JOINT rWrist
                        {
                            OFFSET  -0.240000   0.000000   0.000000
                            CHANNELS 3 Xrotation Yrotation Zrotation
                            End Site
                            {
                                OFFSET  -0.116353  -0.002500   0.000000
                            }
                        }
                    }
                }
            }
            JOINT lTorso_Clavicle
            {
                OFFSET   0.001000   0.157500   0.000000
                CHANNELS 3 Xrotation Yrotation Zrotation
                JOINT lShoulder
                {
                    OFFSET   0.117647   0.000000   0.000000
                    CHANNELS 3 Xrotation Yrotation Zrotation
                    JOINT lElbow
                    {
                        OFFSET   0.245000   0.000000   0.000000
                        CHANNELS 3 Xrotation Yrotation Zrotation
                        JOINT lWrist
                        {
                            OFFSET   0.240000   0.000000   0.000000
                            CHANNELS 3 Xrotation Yrotation Zrotation
                            End Site
                            {
                                OFFSET   0.116353  -0.002500   0.000000
                            }
                        }
                    }
                }
            }
        }
    }
    JOINT rHip
    {
        OFFSET  -0.100000  -0.051395   0.000000
        CHANNELS 3 Xrotation Yrotation Zrotation
        JOINT rKnee
        {
            OFFSET   0.000000  -0.410000   0.000000
            CHANNELS 3 Xrotation Yrotation Zrotation
            JOINT rAnkle
            {
                OFFSET   0.000000  -0.390000   0.000000
                CHANNELS 3 Xrotation Yrotation Zrotation
                JOINT rToeJoint
                {
                    OFFSET   0.000000  -0.050000   0.130000
                    CHANNELS 3 Xrotation Yrotation Zrotation
                    End Site
                    {
                        OFFSET  -0.010000   0.002000   0.060000
                    }
                }
            }
        }
    }
    JOINT lHip
    {
        OFFSET   0.100000  -0.051395   0.000000
        CHANNELS 3 Xrotation Yrotation Zrotation
        JOINT lKnee
        {
            OFFSET   0.000000  -0.410000   0.000000
            CHANNELS 3 Xrotation Yrotation Zrotation
            JOINT lAnkle
            {
                OFFSET   0.000000  -0.390000   0.000000
                CHANNELS 3 Xrotation Yrotation Zrotation
                JOINT lToeJoint
                {
                    OFFSET   0.000000  -0.050000   0.130000
                    CHANNELS 3 Xrotation Yrotation Zrotation
                    End Site
                    {
                        OFFSET   0.010000   0.002000   0.060000
                    }
                }
            }
        }
    }
}
MOTION
Frames: 10
Frame Time:   0.008333
 -2.376719   0.925631   3.975860   0.000000   0.000000   0.000000   0.000000   0.000000   0.000000   0.000000   0.000000   0.000000   0.000000   0.000000   0.000000   0.000000   0.000000   0.000000   0.000000   0.000000   0.000000   0.000000   0.000000   0.000000   0.000000   0.000000   0.000000   0.000000   0.000000   0.000000   0.000000   0.000000   0.000000   0.000000   0.000000   0.000000   0.000000   0.000000   0.000000   0.000000   0.000000   0.000000   0.000000   0.000000   0.000000   0.000000   0.000000   0.000000   0.000000   0.000000   0.000000   0.000000   0.000000   0.000000   0.000000   0.000000   0.000000   0.000000   0.000000   0.000000   0.000000   0.000000   0.000000
 -2.377247   0.925257   3.974801  -0.717432   0.065637  -0.216522   0.948642  -0.011792   0.055501   0.282363  -0.121769   0.087072  -0.153631  -0.083379   0.087151   0.057879  -0.308695  -0.758203   0.372594  -0.188214   2.427361   0.050620   3.573937  -0.030672  -0.158954  -1.490641  -1.523101   0.148644   0.338949   0.613126   1.508677   0.046609  -1.713594   0.038107  -3.508787   0.067552   0.053657   1.678147   0.883278   0.065412  -0.413496   0.129098   1.388812   0.000985  -0.004237   0.078363   0.028105   0.232613  -0.231070   0.000296   0.000650   0.316800  -0.216163   0.488626   1.476931  -0.003534  -0.001898  -1.172562   0.414457   0.086883   0.146783  -0.000457   0.000335
 -2.377925   0.924706   3.973168  -1.559901   0.147358  -0.471222   1.971912  -0.056728   0.096724   0.746138  -0.277266   0.210361  -0.238932  -0.165155   0.160475   0.119873  -0.446560  -1.081035   0.717308  -0.173487   5.031863   0.116452   7.290367  -0.060440  -0.285010  -1.948592  -2.493634   0.307752   0.471125   0.934681   2.919932  -0.149923  -3.537292   0.092041  -7.166004   0.127206   0.172330   2.341028   1.410052   0.041577  -0.823999   0.158818   2.854994   0.003304  -0.007760   0.169614   0.051709   0.449569  -0.383000   0.000245   0.000943   0.769000  -0.411306   1.184013   3.083008  -0.009109  -0.002793  -2.259862   0.807275   0.178658   0.269469  -0.000935   0.000566
 -2.378628   0.923960   3.971117  -2.385027   0.311338  -0.739746   2.991050  -0.158731   0.144778   1.250424  -0.476999   0.355883  -0.307810  -0.242846   0.219936   0.178529  -0.449340  -1.101060   1.027259  -0.043055   7.669755   0.185601  11.051749  -0.086175  -0.393991  -1.999884  -3.004577   0.458797   0.419066   1.035625   4.220104  -0.512489  -5.379659   0.151657 -10.879928   0.176294   0.297550   2.542041   1.635177  -0.065709  -1.162655   0.140413   4.204603   0.005555  -0.008608   0.115950   0.132397   0.650862  -1.870512  -0.000645   0.002283   1.252998  -0.585246   2.014398   4.631746  -0.014903  -0.001686  -3.271140   1.174352   0.271896   0.395607  -0.001467   0.000852
 -2.379160   0.922882   3.968696  -3.183525   0.429201  -0.998249   4.018552  -0.257207   0.210020   1.769839  -0.675319   0.510342  -0.374157  -0.314698   0.269566   0.231416  -0.344938  -0.936381   1.301852   0.172108  10.266406   0.251870  14.842213  -0.108713  -0.492734  -1.850646  -3.189494   0.600487   0.245980   0.983403   5.413772  -0.986254  -7.197287   0.210780 -14.629475   0.217402   0.421046   2.493920   1.625590  -0.283086  -1.489997   0.021930   5.439191   0.007909  -0.009683   0.105869   0.190338   0.839436  -2.848028  -0.001897   0.003396   1.712803  -0.812054   2.798696   5.931145  -0.017969  -0.001770  -4.314243   1.423052   0.311927  -0.809706   0.004729  -0.000865
 -2.379293   0.922800   3.966120  -4.064967   0.487272  -1.106531   5.122416  -0.356464   0.200624   2.346886  -0.869421   0.624732  -0.433770  -0.381693   0.310330   0.277778  -0.156788  -0.564366   1.542496   0.449760  12.823768   0.316840  18.652712  -0.129168  -0.583241  -1.588764  -3.167130   0.732824  -0.018484   0.741530   6.506849  -1.543206  -8.997401   0.270660 -18.403094   0.253221   0.541302   2.299964   1.468602  -0.483937  -1.796474  -0.334749   6.614390   0.010336  -0.011102   0.209577   0.238695   1.028559  -2.694693  -0.001198   0.002381   1.956663  -1.018439   2.929667   7.049864  -0.014796  -0.002372  -5.095003   1.594326   0.146928  -0.567686   0.004084  -0.000623
 -2.379673   0.922777   3.963726  -4.970986   0.558930  -1.355887   6.202980  -0.476726   0.294019   2.944493  -1.072621   0.801789  -0.479031  -0.444730   0.352924   0.322614   0.066540  -0.120603   1.757314   0.755655  15.293628   0.373211  22.474876  -0.145159  -0.671393  -1.265419  -2.906772   0.858432  -0.335788   0.448527   7.508805  -2.152654 -10.727936   0.324540 -22.197246   0.282751   0.655080   1.991076   1.133463  -0.691425  -2.120767  -0.599131   7.659064   0.012121  -0.012140   0.292819   0.245190   1.189607  -2.621786  -0.000766   0.001705   2.186009  -1.059500   3.233279   8.252926  -0.012418  -0.001121  -5.842943   1.943237   0.169068  -0.374296   0.003139   0.000149
 -2.379780   0.922644   3.961457  -5.451769   0.524463  -1.626781   6.933344  -0.577921   0.495300   3.243825  -1.225951   0.998480  -0.511087  -0.535516   0.358397   0.425672   0.153690   0.138827   2.288115   1.213661  17.421511   0.412160  26.317023  -0.164593  -0.779431  -0.870893  -2.241344   1.177225  -0.544297   0.336921   8.743095  -2.848750 -12.423702   0.370226 -26.046721   0.319830   0.708631   1.416838   0.549304  -1.572452  -2.689723  -1.002446   9.244706   0.016601  -0.019924   0.211356  -0.084507   1.314984  -2.500587  -0.000136   0.000280   2.102742  -0.911580   3.540604   9.115640  -0.010133   0.000256  -5.919901   2.600305   0.403374   0.072093   0.001405   0.003150
 -2.379816   0.922530   3.959615  -5.888373   0.513096  -1.907855   7.594827  -0.699606   0.744291   3.475661  -1.387357   1.220494  -0.557811  -0.622373   0.374705   0.525345   0.205868   0.298868   2.775421   1.635938  19.344222   0.437210  30.153582  -0.175916  -0.878995  -0.502749  -1.611452   1.481489  -0.724504   0.278365   9.885621  -3.519571 -13.968462   0.404356 -29.896173   0.347578   0.762801   0.821450  -0.061772  -2.447926  -3.234323  -1.496235  10.763095   0.020688  -0.025685   0.140351  -0.401504   1.428578  -2.379130   0.000456  -0.000834   2.042119  -0.758910   3.860483   9.889845  -0.008224   0.001382  -5.986502   3.218817   0.621698   0.528658   0.000108   0.005585
 -2.379856   0.922500   3.958120  -6.295678   0.390757  -2.207437   8.193465  -0.779309   1.016534   3.673203  -1.515387   1.454906  -0.606624  -0.702381   0.397046   0.618375   0.244809   0.403807   3.220064   2.033624  21.102267   0.452506  33.985586  -0.181550  -0.977532  -0.177790  -1.059362   1.768259  -0.867464   0.256005  10.941461  -4.152421 -15.377750   0.430298 -33.738983   0.369103   0.808994   0.279972  -0.625219  -3.319417  -3.724117  -2.044314  12.178378   0.023758  -0.030845   0.075672  -0.697675   1.533370  -2.262496   0.000951  -0.001753   2.051111  -0.713102   4.168791  10.581901  -0.006735   0.000779  -6.199420   3.674322   0.803408   0.017239   0.000955   0.002752
